<svg width="24" height="24" viewBox="0 0 24 24" fill="none" xmlns="http://www.w3.org/2000/svg">
<path d="M12 11.1C13.8225 11.1 15.3 9.62254 15.3 7.8C15.3 5.97746 13.8225 4.5 12 4.5C10.1774 4.5 8.69995 5.97746 8.69995 7.8C8.69995 9.62254 10.1774 11.1 12 11.1Z" stroke="#1B1B1B" stroke-width="2"/>
<path d="M6.20645 17.5092L5.68205 18.4524C5.62254 18.5598 5.59209 18.6809 5.59369 18.8036C5.59529 18.9264 5.6289 19.0466 5.69119 19.1524C5.75348 19.2582 5.8423 19.3459 5.94887 19.4069C6.05544 19.4679 6.17608 19.5 6.29885 19.5H17.7013C17.824 19.5 17.9447 19.4679 18.0512 19.4069C18.1578 19.3459 18.2466 19.2582 18.3089 19.1524C18.3712 19.0466 18.4048 18.9264 18.4064 18.8036C18.408 18.6809 18.3776 18.5598 18.3181 18.4524L17.7937 17.5092C17.2197 16.476 16.3798 15.6151 15.3611 15.0157C14.3424 14.4163 13.182 14.1002 12.0001 14.1002C10.8181 14.1002 9.65766 14.4163 8.63898 15.0157C7.6203 15.6151 6.78044 16.476 6.20645 17.5092Z" stroke="#1B1B1B" stroke-width="2" stroke-linecap="round" stroke-linejoin="round"/>
</svg>
