<svg width="20" height="20" viewBox="0 0 20 20" fill="none" xmlns="http://www.w3.org/2000/svg">
<path d="M17.1625 9.16112C17.1273 9.01097 17.0557 8.87182 16.9539 8.75598C16.8521 8.64015 16.7233 8.55121 16.5789 8.49706L12.3258 6.90253L13.4195 1.43378C13.4595 1.23377 13.4332 1.02617 13.3445 0.842482C13.2558 0.658792 13.1097 0.509028 12.9282 0.415907C12.7468 0.322786 12.5399 0.291389 12.3389 0.326478C12.138 0.361566 11.954 0.461226 11.8148 0.610341L3.06483 9.98534C2.95956 10.098 2.88371 10.2349 2.844 10.3839C2.80429 10.5329 2.80194 10.6894 2.83718 10.8396C2.87241 10.9897 2.94413 11.1288 3.04598 11.2446C3.14783 11.3604 3.27667 11.4492 3.42108 11.5033L7.67421 13.0978L6.58046 18.5666C6.54048 18.7666 6.56681 18.9742 6.65547 19.1579C6.74414 19.3416 6.89029 19.4913 7.07176 19.5845C7.25323 19.6776 7.46012 19.709 7.66105 19.6739C7.86198 19.6388 8.04598 19.5391 8.18515 19.39L16.9351 10.015C17.0403 9.90235 17.1161 9.76548 17.1557 9.61654C17.1954 9.4676 17.1977 9.31118 17.1625 9.16112ZM9.0664 15.6978L9.66952 12.6838C9.71315 12.4655 9.67768 12.2388 9.56947 12.0443C9.46126 11.8498 9.28736 11.7001 9.0789 11.6221L5.39062 10.24L10.932 4.30253L10.3289 7.31659C10.2853 7.53487 10.3207 7.76155 10.429 7.95607C10.5372 8.15059 10.7111 8.30027 10.9195 8.37831L14.6094 9.76034L9.0664 15.6978Z" fill="#1B1B1B"/>
</svg>
