<svg xmlns="http://www.w3.org/2000/svg" width="12" height="12" viewBox="0 0 12 12" fill="none">
  <path d="M6 2.25C4.58789 2.25 3.33984 2.39648 2.57812 2.50781C1.94824 2.6001 1.43994 3.07471 1.32422 3.70312C1.22607 4.23779 1.125 5.02002 1.125 6C1.125 6.97998 1.22607 7.76221 1.32422 8.29688C1.43994 8.92529 1.94824 9.40137 2.57812 9.49219C3.34277 9.60352 4.59521 9.75 6 9.75C7.40479 9.75 8.65723 9.60352 9.42188 9.49219C10.0518 9.40137 10.5601 8.92529 10.6758 8.29688C10.7739 7.76074 10.875 6.97705 10.875 6C10.875 5.02295 10.7754 4.23926 10.6758 3.70312C10.5601 3.07471 10.0518 2.6001 9.42188 2.50781C8.66016 2.39648 7.41211 2.25 6 2.25ZM6 3C7.3623 3 8.57959 3.13916 9.31641 3.24609C9.63281 3.29297 9.88037 3.53174 9.9375 3.84375C10.0283 4.33887 10.125 5.07275 10.125 6C10.125 6.92578 10.0283 7.66113 9.9375 8.15625C9.88037 8.46826 9.63428 8.7085 9.31641 8.75391C8.57666 8.86084 7.35352 9 6 9C4.64648 9 3.42188 8.86084 2.68359 8.75391C2.36719 8.7085 2.11963 8.46826 2.0625 8.15625C1.97168 7.66113 1.875 6.92871 1.875 6C1.875 5.06982 1.97168 4.33887 2.0625 3.84375C2.11963 3.53174 2.36572 3.29297 2.68359 3.24609C3.41895 3.13916 4.6377 3 6 3ZM4.875 3.85547V8.14453L5.4375 7.82812L8.0625 6.32812L8.625 6L8.0625 5.67188L5.4375 4.17188L4.875 3.85547ZM5.625 5.14453L7.11328 6L5.625 6.85547V5.14453Z" fill="#1B1B1B"/>
</svg>