<svg xmlns="http://www.w3.org/2000/svg" width="26" height="20" viewBox="0 0 26 20" fill="none">
    <path d="M25.875 9.70312C25.875 9.98906 25.7614 10.2633 25.5592 10.4655C25.357 10.6677 25.0828 10.7812 24.7969 10.7812H1.07812C0.792188 10.7812 0.517963 10.6677 0.315776 10.4655C0.113588 10.2633 0 9.98906 0 9.70312C0 9.41719 0.113588 9.14296 0.315776 8.94078C0.517963 8.73859 0.792188 8.625 1.07812 8.625H24.7969C25.0828 8.625 25.357 8.73859 25.5592 8.94078C25.7614 9.14296 25.875 9.41719 25.875 9.70312ZM1.07812 2.15625H24.7969C25.0828 2.15625 25.357 2.04266 25.5592 1.84047C25.7614 1.63829 25.875 1.36406 25.875 1.07812C25.875 0.792188 25.7614 0.517963 25.5592 0.315776C25.357 0.113588 25.0828 0 24.7969 0H1.07812C0.792188 0 0.517963 0.113588 0.315776 0.315776C0.113588 0.517963 0 0.792188 0 1.07812C0 1.36406 0.113588 1.63829 0.315776 1.84047C0.517963 2.04266 0.792188 2.15625 1.07812 2.15625ZM24.7969 17.25H1.07812C0.792188 17.25 0.517963 17.3636 0.315776 17.5658C0.113588 17.768 0 18.0422 0 18.3281C0 18.6141 0.113588 18.8883 0.315776 19.0905C0.517963 19.2927 0.792188 19.4062 1.07812 19.4062H24.7969C25.0828 19.4062 25.357 19.2927 25.5592 19.0905C25.7614 18.8883 25.875 18.6141 25.875 18.3281C25.875 18.0422 25.7614 17.768 25.5592 17.5658C25.357 17.3636 25.0828 17.25 24.7969 17.25Z" fill="black"/>
</svg>