<svg width="24" height="24" viewBox="0 0 24 24" fill="none" xmlns="http://www.w3.org/2000/svg">
<path d="M21.7918 7.0438C22.1998 8.6146 22.1998 11.9398 22.1998 11.9398C22.1998 11.9398 22.1998 15.265 21.7918 16.8358C21.6783 17.2782 21.448 17.682 21.125 18.005C20.802 18.328 20.3982 18.5583 19.9558 18.6718C18.385 19.0798 11.9998 19.0798 11.9998 19.0798C11.9998 19.0798 5.6146 19.0798 4.0438 18.6718C3.60139 18.5583 3.1976 18.328 2.87462 18.005C2.55165 17.682 2.32136 17.2782 2.2078 16.8358C1.7998 15.265 1.7998 11.9398 1.7998 11.9398C1.7998 11.9398 1.7998 8.6146 2.2078 7.0438C2.32679 6.60406 2.55891 6.20316 2.88104 5.88104C3.20316 5.55891 3.60406 5.32679 4.0438 5.2078C5.6146 4.7998 11.9998 4.7998 11.9998 4.7998C11.9998 4.7998 18.385 4.7998 19.9558 5.2078C20.3955 5.32679 20.7964 5.55891 21.1186 5.88104C21.4407 6.20316 21.6728 6.60406 21.7918 7.0438ZM9.95981 14.9998L15.2638 11.9398L9.95981 8.87981V14.9998Z" fill="white"/>
</svg>
