<svg width="24" height="24" viewBox="0 0 24 24" fill="none" xmlns="http://www.w3.org/2000/svg">
<path d="M12.6131 2.0459H15.9011C15.9011 2.0459 15.7127 6.2579 20.4551 6.5675V9.8207C20.4551 9.8207 17.9183 9.9755 15.8999 8.4311L15.9335 15.1583C15.9337 16.3628 15.5767 17.5402 14.9075 18.5417C14.2383 19.5432 13.287 20.3236 12.1741 20.7843C11.0612 21.2449 9.83669 21.3651 8.65547 21.1296C7.47425 20.894 6.38945 20.3134 5.53835 19.4611C4.68725 18.6088 4.1081 17.5232 3.87419 16.3417C3.64029 15.1601 3.76215 13.9358 4.22434 12.8235C4.68653 11.7112 5.46829 10.7611 6.47068 10.0933C7.47307 9.42545 8.65103 9.07 9.8555 9.0719H10.7051V12.4139C10.1509 12.2422 9.5566 12.2497 9.00687 12.4354C8.45715 12.621 7.97999 12.9753 7.6433 13.4478C7.30661 13.9204 7.12754 14.4871 7.1316 15.0673C7.13565 15.6475 7.32261 16.2116 7.66587 16.6794C8.00913 17.1472 8.49119 17.4948 9.04345 17.6727C9.59572 17.8507 10.19 17.8499 10.7418 17.6705C11.2936 17.4911 11.7747 17.1422 12.1167 16.6735C12.4588 16.2048 12.6442 15.6401 12.6467 15.0599L12.6131 2.0459Z" fill="white"/>
</svg>
