<svg xmlns="http://www.w3.org/2000/svg" width="14" height="14" viewBox="0 0 14 14" fill="none">
  <path d="M12.8244 6.25529L10.358 8.40779L11.0968 11.6125C11.1359 11.78 11.1248 11.9553 11.0647 12.1166C11.0047 12.2778 10.8985 12.4178 10.7594 12.519C10.6203 12.6201 10.4544 12.6781 10.2825 12.6855C10.1107 12.693 9.94042 12.6496 9.79307 12.5608L6.998 10.8654L4.20893 12.5608C4.06159 12.6496 3.89134 12.693 3.71947 12.6855C3.54759 12.6781 3.38173 12.6201 3.2426 12.519C3.10348 12.4178 2.99727 12.2778 2.93726 12.1166C2.87724 11.9553 2.86609 11.78 2.90518 11.6125L3.64292 8.41107L1.17596 6.25529C1.04548 6.14276 0.951134 5.9942 0.904745 5.82826C0.858356 5.66232 0.861992 5.48637 0.915199 5.32249C0.968406 5.15861 1.06881 5.01408 1.20383 4.90703C1.33885 4.79999 1.50247 4.73519 1.67417 4.72076L4.92589 4.43912L6.19518 1.41162C6.26147 1.25276 6.37327 1.11707 6.51652 1.02162C6.65977 0.926174 6.82805 0.875244 7.00018 0.875244C7.17232 0.875244 7.3406 0.926174 7.48385 1.02162C7.62709 1.11707 7.7389 1.25276 7.80518 1.41162L9.07831 4.43912L12.3289 4.72076C12.5006 4.73519 12.6642 4.79999 12.7993 4.90703C12.9343 5.01408 13.0347 5.15861 13.0879 5.32249C13.1411 5.48637 13.1447 5.66232 13.0984 5.82826C13.052 5.9942 12.9576 6.14276 12.8271 6.25529H12.8244Z" fill="#FCD116"/>
</svg>