<svg width="24" height="24" viewBox="0 0 24 24" fill="none" xmlns="http://www.w3.org/2000/svg">
<path fill-rule="evenodd" clip-rule="evenodd" d="M15.8759 4.19087C14.8679 4.14647 14.5607 4.13567 11.9999 4.13567C9.4271 4.13567 9.1319 4.14767 8.1143 4.20167C7.1831 4.23407 6.6803 4.39847 6.3299 4.52927C5.91601 4.68072 5.54184 4.92402 5.2355 5.24087C4.91503 5.55104 4.66817 5.92911 4.5131 6.34727C4.3811 6.68567 4.2275 7.18967 4.1843 8.13047C4.1291 9.13847 4.1291 9.44447 4.1291 12.0065C4.1291 14.5673 4.1411 14.8745 4.1843 15.8813C4.1891 16.4933 4.3007 17.1005 4.5131 17.6753C4.6871 18.1133 4.8959 18.4421 5.2355 18.7709C5.5739 19.1093 5.8811 19.3181 6.3395 19.4933C6.9083 19.7045 7.5083 19.8149 8.1143 19.8209C9.1319 19.8761 9.4379 19.8761 11.9999 19.8761C14.5607 19.8761 14.8679 19.8641 15.8759 19.8209C16.8167 19.7777 17.3195 19.6241 17.6591 19.4933C18.1079 19.3181 18.4367 19.0985 18.7643 18.7709C19.1039 18.4313 19.3007 18.1133 19.4867 17.6645C19.6991 17.0933 19.8107 16.4897 19.8155 15.8813C19.8599 14.8733 19.8707 14.5673 19.8707 12.0053C19.8707 9.44447 19.8587 9.13727 19.8047 8.13047C19.7723 7.18967 19.6079 6.68567 19.4759 6.33647C19.3246 5.92216 19.0813 5.54755 18.7643 5.24087C18.4519 4.92424 18.0755 4.67796 17.6603 4.51847C17.3195 4.38647 16.8179 4.23407 15.8759 4.19087ZM8.0363 2.46047C9.0647 2.41727 9.3935 2.40647 11.9987 2.40647C13.3187 2.38967 14.6411 2.40767 15.9611 2.46047C16.7579 2.47727 17.5463 2.62847 18.2927 2.90927C18.9311 3.15211 19.5098 3.52944 19.9895 4.01567C20.4815 4.49207 20.8631 5.07167 21.1055 5.71247C21.3815 6.45887 21.5303 7.24727 21.5435 8.04287C21.5999 9.07247 21.5999 9.38927 21.5999 12.0065C21.5999 14.6105 21.5879 14.9393 21.5447 15.9569C21.5015 16.9865 21.3371 17.6873 21.0959 18.2885C20.8559 18.9245 20.5271 19.4597 19.9919 19.9961C19.5136 20.4846 18.934 20.8623 18.2939 21.1025C17.6819 21.3317 16.9799 21.5069 15.9623 21.5513C14.9339 21.5945 14.6159 21.6053 11.9999 21.6053C9.3947 21.6053 9.0659 21.5945 8.0375 21.5393C7.0187 21.5069 6.3191 21.3425 5.7059 21.1025C5.07051 20.8538 4.49297 20.4772 4.0091 19.9961C3.52266 19.5105 3.1426 18.9289 2.8931 18.2885C2.6735 17.6765 2.4983 16.9865 2.4551 15.9569C2.4107 14.9405 2.3999 14.6009 2.3999 12.0053C2.3999 9.41207 2.3999 9.08327 2.4659 8.04287C2.4983 7.02527 2.6627 6.32447 2.9039 5.71247C3.16009 5.08152 3.53485 4.50552 4.0079 4.01567C4.49184 3.53173 5.06969 3.15194 5.7059 2.89967C6.3179 2.68007 7.0175 2.50367 8.0363 2.46047ZM8.5487 8.22767C9.00427 7.76204 9.54766 7.39139 10.1474 7.13718C10.7472 6.88297 11.3914 6.75024 12.0429 6.74668C12.6943 6.74312 13.3399 6.8688 13.9424 7.11644C14.5449 7.36409 15.0924 7.72878 15.553 8.1894C16.0136 8.65002 16.3783 9.19744 16.6259 9.79995C16.8736 10.4025 16.9993 11.0481 16.9957 11.6995C16.9921 12.3509 16.8594 12.9952 16.6052 13.5949C16.351 14.1947 15.9803 14.7381 15.5147 15.1937C14.5875 16.1008 13.34 16.6056 12.0429 16.5985C10.7457 16.5914 9.50377 16.073 8.58656 15.1558C7.66935 14.2386 7.15093 12.9966 7.14384 11.6995C7.13675 10.4024 7.64157 9.15485 8.5487 8.22767ZM10.8071 14.6729C11.5916 14.9978 12.4731 14.9978 13.2576 14.6728C14.0421 14.3479 14.6654 13.7246 14.9903 12.9401C15.3152 12.1556 15.3152 11.2741 14.9903 10.4896C14.6653 9.7051 14.042 9.08182 13.2575 8.75687C12.473 8.43193 11.5915 8.43194 10.807 8.7569C10.0225 9.08187 9.39925 9.70516 9.0743 10.4897C8.74936 11.2742 8.74937 12.1556 9.07433 12.9401C9.3993 13.7247 10.0226 14.3479 10.8071 14.6729ZM17.9135 7.54247C17.8067 7.64924 17.68 7.73393 17.5405 7.79171C17.401 7.84949 17.2515 7.87923 17.1005 7.87923C16.9495 7.87923 16.8 7.84949 16.6605 7.79171C16.521 7.73393 16.3943 7.64924 16.2875 7.54247C16.1807 7.43571 16.096 7.30896 16.0383 7.16947C15.9805 7.02997 15.9507 6.88046 15.9507 6.72947C15.9507 6.57849 15.9805 6.42898 16.0383 6.28948C16.096 6.14999 16.1807 6.02324 16.2875 5.91647C16.5031 5.70085 16.7956 5.57972 17.1005 5.57972C17.4054 5.57972 17.6979 5.70085 17.9135 5.91647C18.1291 6.13209 18.2503 6.42454 18.2503 6.72947C18.2503 7.03441 18.1291 7.32685 17.9135 7.54247Z" fill="white"/>
</svg>
