<svg width="80" height="80" viewBox="0 0 80 80" fill="none" xmlns="http://www.w3.org/2000/svg">
<path d="M40 71.9424C38.2784 71.9424 36.5597 71.4993 35.0243 70.6103L15.9769 59.6119C12.9091 57.8424 11.004 54.5431 11.004 51.004V29.0044C11.004 25.4625 12.9091 22.1604 15.9769 20.3909L35.0272 9.38967C38.095 7.62011 41.905 7.62011 44.9757 9.38967L64.026 20.3909C67.0938 22.1604 68.9988 25.4625 68.9988 29.0044V51.004C68.9988 54.5431 67.0938 57.8424 64.026 59.6119L44.9757 70.6131C43.4432 71.5021 41.7216 71.9452 40.0028 71.9452L40 71.9424ZM40 10.3182C38.6707 10.3182 37.3414 10.6597 36.1561 11.3455L17.1058 22.3467C14.7351 23.7155 13.2618 26.2668 13.2618 29.0044V51.004C13.2618 53.7388 14.7351 56.2873 17.1058 57.6561L36.1561 68.6573C38.5268 70.0317 41.4732 70.0317 43.8439 68.6573L62.8942 57.6561C65.2649 56.2873 66.7382 53.7388 66.7382 51.004V29.0044C66.7382 26.264 65.2649 23.7155 62.8942 22.3467L43.8439 11.3455C42.6586 10.6625 41.3293 10.321 40 10.321V10.3182Z" fill="#1B1B1B"/>
<path d="M22.9619 48.9606V28.8887H25.9987L37.3498 44.1176V28.8887H40.4148V48.9606H37.3498L26.0551 33.7458V48.9606H22.9619Z" fill="#1B1B1B"/>
<path d="M50.2137 49.2147C49.0735 49.2147 48.0067 48.9156 47.0076 48.3201C46.0086 47.7246 45.2042 46.8892 44.5946 45.8224C43.9822 44.7527 43.6774 43.5758 43.6774 42.2889C43.6774 41.0019 43.9765 39.8053 44.572 38.7328C45.1703 37.6604 45.9662 36.8221 46.9653 36.221C47.9644 35.6199 49.0453 35.3179 50.2137 35.3179C52.1639 35.3179 53.7303 36.0009 54.9156 37.3612V35.5832H57.8677V48.9635H54.9156V47.2137C53.7585 48.5487 52.1893 49.2147 50.2137 49.2147ZM47.8769 39.3396C47.0641 40.1468 46.6577 41.1289 46.6577 42.286C46.6577 43.4432 47.0641 44.4253 47.8769 45.2325C48.6897 46.0397 49.6775 46.4432 50.8431 46.4432C52.0087 46.4432 52.9711 46.0397 53.7839 45.2325C54.5967 44.4253 55.0003 43.4432 55.0003 42.286C55.0003 41.1289 54.5939 40.1468 53.7839 39.3396C52.9711 38.5324 51.9918 38.1289 50.8431 38.1289C49.6944 38.1289 48.6869 38.5324 47.8769 39.3396Z" fill="#1B1B1B"/>
</svg>
