<svg width="80" height="80" viewBox="0 0 80 80" fill="none" xmlns="http://www.w3.org/2000/svg">
<path d="M40 71.9424C38.2784 71.9424 36.5597 71.4993 35.0243 70.6103L15.9769 59.6119C12.9091 57.8424 11.004 54.5431 11.004 51.004V29.0044C11.004 25.4625 12.9091 22.1604 15.9769 20.3909L35.0272 9.38967C38.095 7.62011 41.905 7.62011 44.9757 9.38967L64.026 20.3909C67.0938 22.1604 68.9988 25.4625 68.9988 29.0044V51.004C68.9988 54.5431 67.0938 57.8424 64.026 59.6119L44.9757 70.6131C43.4432 71.5021 41.7216 71.9452 40.0028 71.9452L40 71.9424ZM40 10.3182C38.6707 10.3182 37.3414 10.6597 36.1561 11.3455L17.1058 22.3467C14.7351 23.7155 13.2618 26.2668 13.2618 29.0044V51.004C13.2618 53.7388 14.7351 56.2873 17.1058 57.6561L36.1561 68.6573C38.5268 70.0317 41.4732 70.0317 43.8439 68.6573L62.8942 57.6561C65.2649 56.2873 66.7382 53.7388 66.7382 51.004V29.0044C66.7382 26.264 65.2649 23.7155 62.8942 22.3467L43.8439 11.3455C42.6586 10.6625 41.3293 10.321 40 10.321V10.3182Z" fill="#1B1B1B"/>
<path d="M23.0025 45.563V28H25.9066L32.1272 38.6682L38.3972 28H41.2742V45.563H38.5676V32.5192L32.1 43.6516L25.7066 32.5439V45.563H23H23.0025Z" fill="#1B1B1B"/>
<path d="M50.3396 51.6626C49.1148 51.6626 47.9887 51.3935 46.9663 50.8551C45.944 50.3168 45.1266 49.5734 44.524 48.6252L46.3243 47.0447C46.7169 47.7312 47.2602 48.2745 47.9591 48.6746C48.6579 49.0746 49.4358 49.2746 50.2927 49.2746C51.3793 49.2746 52.2733 48.961 52.9746 48.3362C53.6759 47.7115 54.0291 46.7953 54.0291 45.5877V43.9825C53.0092 45.1827 51.6188 45.7828 49.8655 45.7828C48.8678 45.7828 47.9344 45.521 47.0602 45C46.186 44.4789 45.4822 43.7479 44.9488 42.8145C44.4129 41.8785 44.1462 40.8488 44.1462 39.7227C44.1462 38.5966 44.4079 37.5495 44.929 36.6111C45.4525 35.6727 46.1489 34.9393 47.0231 34.4133C47.8973 33.8873 48.8431 33.623 49.8655 33.623C51.6114 33.623 53.0017 34.2429 54.0291 35.485V33.8552H56.6368V45.5877C56.6368 47.4571 56.0516 48.9363 54.8786 50.0278C53.708 51.1169 52.1942 51.6626 50.3396 51.6626ZM46.7515 39.7227C46.7515 40.7278 47.1046 41.5847 47.8109 42.2934C48.5172 43.0046 49.384 43.3602 50.4137 43.3602C51.4435 43.3602 52.2658 43.0046 52.9795 42.2934C53.6932 41.5822 54.0513 40.7253 54.0513 39.7227C54.0513 38.7201 53.6932 37.8508 52.9795 37.1445C52.2658 36.4383 51.4089 36.0851 50.4137 36.0851C49.4185 36.0851 48.5172 36.4358 47.8109 37.1396C47.1046 37.8409 46.7515 38.7028 46.7515 39.7251V39.7227Z" fill="#1B1B1B"/>
</svg>
