<svg width="80" height="80" viewBox="0 0 80 80" fill="none" xmlns="http://www.w3.org/2000/svg">
<path d="M40 71.9424C38.2784 71.9424 36.5597 71.4993 35.0243 70.6103L15.9769 59.6119C12.9091 57.8424 11.004 54.5431 11.004 51.004V29.0044C11.004 25.4625 12.9091 22.1604 15.9769 20.3909L35.0272 9.38967C38.095 7.62011 41.905 7.62011 44.9757 9.38967L64.026 20.3909C67.0938 22.1604 68.9988 25.4625 68.9988 29.0044V51.004C68.9988 54.5431 67.0938 57.8424 64.026 59.6119L44.9757 70.6131C43.4432 71.5021 41.7216 71.9452 40.0028 71.9452L40 71.9424ZM40 10.3182C38.6707 10.3182 37.3414 10.6597 36.1561 11.3455L17.1058 22.3467C14.7351 23.7155 13.2618 26.2668 13.2618 29.0044V51.004C13.2618 53.7388 14.7351 56.2873 17.1058 57.6561L36.1561 68.6573C38.5268 70.0317 41.4732 70.0317 43.8439 68.6573L62.8942 57.6561C65.2649 56.2873 66.7382 53.7388 66.7382 51.004V29.0044C66.7382 26.264 65.2649 23.7155 62.8942 22.3467L43.8439 11.3455C42.6586 10.6625 41.3293 10.321 40 10.321V10.3182Z" fill="#1B1B1B"/>
<path d="M45.0075 33.4924C45.0075 33.789 44.9195 34.079 44.7547 34.3257C44.5899 34.5724 44.3556 34.7646 44.0815 34.8782C43.8074 34.9917 43.5058 35.0214 43.2149 34.9635C42.9239 34.9057 42.6566 34.7628 42.4469 34.553C42.2371 34.3432 42.0942 34.076 42.0363 33.785C41.9785 33.494 42.0082 33.1924 42.1217 32.9183C42.2352 32.6442 42.4275 32.41 42.6742 32.2451C42.9208 32.0803 43.2108 31.9924 43.5075 31.9924C43.9053 31.9924 44.2869 32.1504 44.5682 32.4317C44.8495 32.713 45.0075 33.0945 45.0075 33.4924ZM49.9913 43.6174C47.3963 46.9136 43.26 48.7099 37.69 48.9636L34.94 55.3911C34.863 55.5722 34.7343 55.7266 34.57 55.8349C34.4057 55.9431 34.2131 56.0005 34.0163 55.9999H33.9525C33.7464 55.9869 33.5494 55.9106 33.3885 55.7812C33.2276 55.6518 33.1107 55.4758 33.0538 55.2774L31.2025 48.7961L24.725 46.9411C24.526 46.8852 24.3492 46.769 24.2189 46.6084C24.0886 46.4479 24.0113 46.2509 23.9976 46.0447C23.9839 45.8384 24.0345 45.6329 24.1424 45.4565C24.2502 45.2802 24.4101 45.1416 24.6 45.0599L31.0288 42.3099C31.2788 36.7386 33.08 32.6024 36.3775 30.0086C41.7788 25.7586 49.4913 27.1549 50.9825 27.4774C51.3582 27.5585 51.7026 27.7462 51.9743 28.018C52.2461 28.2898 52.4338 28.6342 52.515 29.0099C52.845 30.4999 54.2425 38.2199 49.9913 43.6249V43.6174ZM44.2 45.5761C43.044 45.1358 42.0372 44.3754 41.2975 43.3839C40.5577 42.3925 40.1155 41.2109 40.0225 39.9774C38.7892 39.8846 37.6079 39.4425 36.6166 38.703C35.6254 37.9634 34.8652 36.9569 34.425 35.8011C33.55 37.7836 33.08 40.1899 33.0125 43.0036C33.0078 43.1952 32.9482 43.3814 32.8407 43.5401C32.7333 43.6988 32.5825 43.8232 32.4063 43.8986L27.98 45.7924L32.2875 47.0261C32.4508 47.0728 32.5994 47.1603 32.7195 47.2804C32.8395 47.4005 32.927 47.5491 32.9738 47.7124L34.2038 52.0199L36.1013 47.5936C36.1769 47.4168 36.302 47.2656 36.4614 47.1581C36.6208 47.0506 36.8078 46.9913 37 46.9874C39.81 46.9211 42.2163 46.4486 44.2 45.5761ZM50.5663 29.4336C49.2288 29.1436 42.3163 27.8849 37.62 31.5811C37.0281 32.0476 36.4902 32.5788 36.0163 33.1649C35.9683 33.8183 36.0636 34.4743 36.2955 35.0871C36.5273 35.6998 36.8902 36.2546 37.3588 36.7126C37.8273 37.1705 38.3902 37.5206 39.0082 37.7384C39.6261 37.9563 40.2841 38.0365 40.9363 37.9736C41.0829 37.9597 41.2307 37.9783 41.3693 38.0282C41.5079 38.078 41.6337 38.1579 41.7378 38.262C41.842 38.3662 41.9218 38.492 41.9717 38.6306C42.0215 38.7691 42.0402 38.917 42.0263 39.0636C41.9633 39.716 42.0436 40.3742 42.2616 40.9924C42.4795 41.6105 42.8299 42.1735 43.2881 42.6421C43.7464 43.1107 44.3014 43.4735 44.9145 43.7052C45.5276 43.937 46.1839 44.032 46.8375 43.9836C47.4227 43.5105 47.9531 42.9734 48.4188 42.3824C52.115 37.6861 50.8563 30.7724 50.5663 29.4336Z" fill="#1B1B1B"/>
</svg>
