<svg width="80" height="80" viewBox="0 0 80 80" fill="none" xmlns="http://www.w3.org/2000/svg">
<path d="M40 71.9424C38.2784 71.9424 36.5597 71.4993 35.0243 70.6103L15.9769 59.6119C12.9091 57.8424 11.004 54.5431 11.004 51.004V29.0044C11.004 25.4625 12.9091 22.1604 15.9769 20.3909L35.0272 9.38967C38.095 7.62011 41.905 7.62011 44.9757 9.38967L64.026 20.3909C67.0938 22.1604 68.9988 25.4625 68.9988 29.0044V51.004C68.9988 54.5431 67.0938 57.8424 64.026 59.6119L44.9757 70.6131C43.4432 71.5021 41.7216 71.9452 40.0028 71.9452L40 71.9424ZM40 10.3182C38.6707 10.3182 37.3414 10.6597 36.1561 11.3455L17.1058 22.3467C14.7351 23.7155 13.2618 26.2668 13.2618 29.0044V51.004C13.2618 53.7388 14.7351 56.2873 17.1058 57.6561L36.1561 68.6573C38.5268 70.0317 41.4732 70.0317 43.8439 68.6573L62.8942 57.6561C65.2649 56.2873 66.7382 53.7388 66.7382 51.004V29.0044C66.7382 26.264 65.2649 23.7155 62.8942 22.3467L43.8439 11.3455C42.6586 10.6625 41.3293 10.321 40 10.321V10.3182Z" fill="#1B1B1B"/>
<path d="M54.9537 28.9863C54.9395 28.7417 54.8358 28.5108 54.6626 28.3375C54.4893 28.1642 54.2584 28.0606 54.0137 28.0463C47.5437 27.6713 42.3487 29.6388 40.1162 33.3238C38.6412 35.7601 38.6437 38.7188 40.0962 41.5413C39.2695 42.5255 38.6653 43.6768 38.325 44.9163L36.2912 42.8751C37.2687 40.8338 37.2312 38.7063 36.1662 36.9388C34.5162 34.2151 30.7075 32.7551 25.9787 33.0326C25.7341 33.0469 25.5032 33.1505 25.3299 33.3238C25.1567 33.4971 25.053 33.7279 25.0387 33.9726C24.76 38.7013 26.2212 42.5101 28.945 44.1601C29.8438 44.7092 30.8767 44.9999 31.93 45.0001C32.9524 44.9875 33.9588 44.7453 34.875 44.2913L38 47.4163V51.0001C38 51.2653 38.1054 51.5196 38.2929 51.7072C38.4804 51.8947 38.7348 52.0001 39 52.0001C39.2652 52.0001 39.5196 51.8947 39.7071 51.7072C39.8946 51.5196 40 51.2653 40 51.0001V47.3138C39.9955 45.7229 40.5369 44.1787 41.5337 42.9388C42.8199 43.611 44.2464 43.9707 45.6975 43.9888C47.1005 43.9934 48.4774 43.6101 49.6762 42.8813C53.3612 40.6513 55.3337 35.4563 54.9537 28.9863ZM29.9762 42.4501C28.0587 41.2888 26.9737 38.5401 27 35.0001C30.54 34.9701 33.2887 36.0588 34.45 37.9763C35.0562 38.9763 35.155 40.1426 34.7575 41.3438L31.7062 38.2926C31.5172 38.113 31.2654 38.0143 31.0047 38.0176C30.7439 38.021 30.4948 38.126 30.3104 38.3104C30.126 38.4948 30.0209 38.744 30.0176 39.0048C30.0142 39.2655 30.1129 39.5173 30.2925 39.7063L33.3437 42.7576C32.1425 43.1551 30.9775 43.0563 29.9762 42.4501ZM48.64 41.1726C46.965 42.1863 44.9962 42.2638 42.9962 41.4226L49.7075 34.7101C49.8871 34.521 49.9858 34.2693 49.9824 34.0085C49.9791 33.7477 49.874 33.4986 49.6896 33.3142C49.5052 33.1298 49.2561 33.0247 48.9953 33.0214C48.7346 33.018 48.4828 33.1167 48.2937 33.2963L41.5812 40.0001C40.7362 38.0001 40.8125 36.0301 41.8312 34.3563C43.5737 31.4813 47.7062 29.8788 52.9975 30.0026C53.1175 35.2926 51.5175 39.4301 48.64 41.1726Z" fill="#1B1B1B"/>
</svg>
